# xmcd
#
# Track frame offsets:
#	150
#	14640
#	24677
#	37300
#	49445
#	62685
#	73277
#	94580
#	106432
#	118002
#	128552
#	139710
#	149952
#	160577
#	171900
#	185402
#	198152
#	210825
#	223725
#	240975
#	249900
#	261152
#
# Disc length: 3660 seconds
#
# Revision: 0
# Processed by: cddbd v1.5.2PL0 Copyright (c) Steve Scherf et al.
# Submitted via: EasyCDDAExtractor 15.2.5.1
#
DISCID=4d0e4a16
DTITLE=Connie Francis - 22 Best Seller Golden Hits
DYEAR=1984
DGENRE=Female Vocal
TTITLE0=Are You Lonesome Tonight
TTITLE1=Stupid Cupid
TTITLE2=Frankie
TTITLE3=Vacation
TTITLE4=Second Hand Love
TTITLE5=Lipstick On Your Collar
TTITLE6=Torn Between Two Lovers
TTITLE7=Where The Boys Are
TTITLE8=Everybody's Somebody's Fool
TTITLE9=My Happiness
TTITLE10=My Heart Has a Mind of It's Own
TTITLE11=Who's Sorry Now
TTITLE12=Among My Souvenirs
TTITLE13=Breakin' In A Brand New Broken Heart
TTITLE14=Cry
TTITLE15=If I Didn't Care
TTITLE16=Together
TTITLE17=Crying Time Again
TTITLE18=Hurt
TTITLE19=Many Years Ago
TTITLE20=I'm Gonna Be Warm This Winter
TTITLE21=Don't Break The Heart That Loves You
EXTD=
EXTT0=
EXTT1=
EXTT2=
EXTT3=
EXTT4=
EXTT5=
EXTT6=
EXTT7=
EXTT8=
EXTT9=
EXTT10=
EXTT11=
EXTT12=
EXTT13=
EXTT14=
EXTT15=
EXTT16=
EXTT17=
EXTT18=
EXTT19=
EXTT20=
EXTT21=
PLAYORDER=
